<svg xmlns="http://www.w3.org/2000/svg" xmlns:xlink="http://www.w3.org/1999/xlink" width="500" zoomAndPan="magnify" viewBox="0 0 375 374.999991" height="500" preserveAspectRatio="xMidYMid meet" version="1.0"><defs><clipPath id="e75c2f79e6"><path d="M 120 34.6875 L 181 34.6875 L 181 265 L 120 265 Z M 120 34.6875 " clip-rule="nonzero"/></clipPath><clipPath id="cdc59367c4"><path d="M 0 188 L 375 188 L 375 340.6875 L 0 340.6875 Z M 0 188 " clip-rule="nonzero"/></clipPath></defs><rect x="-37.5" width="450" fill="#ffffff" y="-37.499999" height="449.999989" fill-opacity="1"/><rect x="-37.5" width="450" fill="#ffffff" y="-37.499999" height="449.999989" fill-opacity="1"/><rect x="-37.5" width="450" fill="#000000" y="-37.499999" height="449.999989" fill-opacity="1"/><path fill="#ffffff" d="M 90.011719 146.386719 L 29.429688 178.902344 L 29.429688 262.386719 L 90.011719 223.808594 L 90.011719 146.386719 " fill-opacity="1" fill-rule="nonzero"/><path fill="#ffffff" d="M 90.011719 300.125 L 90.011719 299.292969 L 88.535156 300.125 Z M 90.011719 300.125 " fill-opacity="1" fill-rule="nonzero"/><g clip-path="url(#e75c2f79e6)"><path fill="#ffffff" d="M 180.878906 34.574219 L 120.296875 67.089844 L 120.296875 205.179688 L 180.878906 264.40625 L 180.878906 34.574219 " fill-opacity="1" fill-rule="nonzero"/></g><path fill="#ffffff" d="M 240.433594 235.84375 C 246.722656 231.914062 253.015625 228.042969 259.316406 224.171875 L 271.726562 216.558594 L 271.726562 73.601562 L 211.167969 106.117188 L 211.167969 254.621094 C 216.132812 251.351562 221.359375 247.960938 226.902344 244.417969 C 231.363281 241.542969 235.886719 238.667969 240.433594 235.84375 " fill-opacity="1" fill-rule="nonzero"/><g clip-path="url(#cdc59367c4)"><path fill="#ffffff" d="M 372.761719 200.59375 L 304.332031 188.429688 C 302.785156 188.148438 301.636719 189.835938 302.46875 191.171875 L 315.074219 211.632812 L 310.304688 214.457031 L 307.128906 216.347656 L 268.867188 239.761719 C 262.597656 243.609375 256.355469 247.46875 250.121094 251.363281 C 245.644531 254.164062 241.183594 256.980469 236.742188 259.84375 C 226.117188 266.644531 215.535156 273.554688 205.074219 280.664062 C 199.859375 284.207031 194.648438 287.796875 189.46875 291.445312 C 188.097656 292.40625 186.738281 293.402344 185.367188 294.375 L 181.804688 290.890625 L 126.332031 236.652344 L 117.472656 227.996094 L 107.820312 234.140625 L 95.753906 241.835938 L 0.726562 302.363281 L 12.148438 321.589844 L 112.320312 266 L 112.332031 266 L 150.816406 308.839844 L 170.5 330.738281 L 177.636719 338.691406 L 179.277344 340.5 L 193.160156 333.648438 C 198.839844 330.847656 204.476562 327.949219 210.054688 324.96875 C 215.640625 322 221.183594 318.964844 226.714844 315.902344 C 237.761719 309.765625 248.691406 303.445312 259.5625 297.027344 C 270.449219 290.632812 281.214844 284.03125 291.96875 277.402344 L 330.058594 253.71875 L 332.238281 252.324219 L 337.933594 248.6875 L 349.988281 268.21875 C 350.796875 269.542969 352.789062 269.308594 353.269531 267.820312 L 374.179688 202.949219 C 374.519531 201.894531 373.851562 200.78125 372.761719 200.59375 " fill-opacity="1" fill-rule="nonzero"/></g></svg>